<svg xmlns="http://www.w3.org/2000/svg" xmlns:xlink="http://www.w3.org/1999/xlink" width="189" zoomAndPan="magnify" viewBox="0 0 141.12 141.750002" height="189" preserveAspectRatio="xMidYMid meet"><defs><clipPath id="9c986134ae"><path d="M 0 0.316406 L 140.125 0.316406 L 140.125 140.464844 L 0 140.464844 Z M 0 0.316406 "></path></clipPath></defs><g id="494ecd7d43"><g clip-rule="nonzero" clip-path="url(#9c986134ae)"><path style=" stroke:none;fill-rule:nonzero;fill:#4662f1;fill-opacity:1;" d="M 16.988281 0.316406 L 123.160156 0.316406 C 123.71875 0.316406 124.273438 0.34375 124.828125 0.398438 C 125.378906 0.453125 125.929688 0.53125 126.476562 0.640625 C 127.019531 0.75 127.558594 0.886719 128.09375 1.046875 C 128.625 1.207031 129.148438 1.394531 129.664062 1.609375 C 130.175781 1.820312 130.679688 2.058594 131.167969 2.320312 C 131.660156 2.582031 132.136719 2.867188 132.597656 3.179688 C 133.0625 3.488281 133.507812 3.816406 133.9375 4.171875 C 134.367188 4.523438 134.78125 4.898438 135.171875 5.289062 C 135.566406 5.683594 135.941406 6.097656 136.292969 6.527344 C 136.644531 6.957031 136.976562 7.402344 137.285156 7.863281 C 137.59375 8.328125 137.882812 8.804688 138.144531 9.292969 C 138.40625 9.785156 138.644531 10.289062 138.855469 10.800781 C 139.070312 11.316406 139.257812 11.839844 139.417969 12.371094 C 139.578125 12.902344 139.714844 13.441406 139.824219 13.988281 C 139.929688 14.535156 140.011719 15.085938 140.066406 15.636719 C 140.121094 16.191406 140.148438 16.746094 140.148438 17.304688 L 140.148438 123.476562 C 140.148438 124.03125 140.121094 124.589844 140.066406 125.140625 C 140.011719 125.695312 139.929688 126.246094 139.824219 126.789062 C 139.714844 127.335938 139.578125 127.875 139.417969 128.40625 C 139.257812 128.941406 139.070312 129.464844 138.855469 129.976562 C 138.644531 130.492188 138.40625 130.992188 138.144531 131.484375 C 137.882812 131.976562 137.59375 132.453125 137.285156 132.914062 C 136.976562 133.378906 136.644531 133.824219 136.292969 134.253906 C 135.941406 134.683594 135.566406 135.09375 135.171875 135.488281 C 134.78125 135.882812 134.367188 136.253906 133.9375 136.609375 C 133.507812 136.960938 133.0625 137.292969 132.597656 137.601562 C 132.136719 137.910156 131.660156 138.195312 131.167969 138.457031 C 130.679688 138.722656 130.175781 138.957031 129.664062 139.171875 C 129.148438 139.382812 128.625 139.570312 128.09375 139.734375 C 127.558594 139.894531 127.019531 140.03125 126.476562 140.136719 C 125.929688 140.246094 125.378906 140.328125 124.828125 140.382812 C 124.273438 140.4375 123.71875 140.464844 123.160156 140.464844 L 16.988281 140.464844 C 16.429688 140.464844 15.875 140.4375 15.324219 140.382812 C 14.769531 140.328125 14.21875 140.246094 13.671875 140.136719 C 13.128906 140.03125 12.589844 139.894531 12.054688 139.734375 C 11.523438 139.570312 11 139.382812 10.488281 139.171875 C 9.972656 138.957031 9.46875 138.722656 8.980469 138.457031 C 8.488281 138.195312 8.011719 137.910156 7.550781 137.601562 C 7.085938 137.292969 6.640625 136.960938 6.210938 136.609375 C 5.78125 136.253906 5.367188 135.882812 4.976562 135.488281 C 4.582031 135.09375 4.210938 134.683594 3.855469 134.253906 C 3.503906 133.824219 3.171875 133.378906 2.863281 132.914062 C 2.554688 132.453125 2.269531 131.976562 2.007812 131.484375 C 1.742188 130.992188 1.507812 130.492188 1.292969 129.976562 C 1.082031 129.464844 0.894531 128.941406 0.730469 128.40625 C 0.570312 127.875 0.433594 127.335938 0.328125 126.789062 C 0.21875 126.246094 0.136719 125.695312 0.0820312 125.140625 C 0.0273438 124.589844 0 124.03125 0 123.476562 L 0 17.304688 C 0 16.746094 0.0273438 16.191406 0.0820312 15.636719 C 0.136719 15.085938 0.21875 14.535156 0.328125 13.988281 C 0.433594 13.441406 0.570312 12.902344 0.730469 12.371094 C 0.894531 11.839844 1.082031 11.316406 1.292969 10.800781 C 1.507812 10.289062 1.742188 9.785156 2.007812 9.292969 C 2.269531 8.804688 2.554688 8.328125 2.863281 7.863281 C 3.171875 7.402344 3.503906 6.957031 3.855469 6.527344 C 4.210938 6.097656 4.582031 5.683594 4.976562 5.289062 C 5.367188 4.898438 5.78125 4.523438 6.210938 4.171875 C 6.640625 3.816406 7.085938 3.488281 7.550781 3.179688 C 8.011719 2.867188 8.488281 2.582031 8.980469 2.320312 C 9.46875 2.058594 9.972656 1.820312 10.488281 1.609375 C 11 1.394531 11.523438 1.207031 12.054688 1.046875 C 12.589844 0.886719 13.128906 0.75 13.671875 0.640625 C 14.21875 0.53125 14.769531 0.453125 15.324219 0.398438 C 15.875 0.34375 16.429688 0.316406 16.988281 0.316406 Z M 16.988281 0.316406 "></path></g><path style=" stroke:none;fill-rule:evenodd;fill:#ffffff;fill-opacity:1;" d="M 92.445312 30.949219 L 111.992188 37.285156 C 119.421875 39.613281 124.113281 46.335938 124.113281 53.707031 C 124.113281 55.519531 123.722656 57.328125 123.203125 59.140625 L 109.910156 98.710938 C 107.433594 106.082031 100.523438 110.734375 93.097656 110.605469 C 91.273438 110.605469 89.449219 110.347656 87.625 109.832031 L 70.550781 104.398438 L 53.476562 109.960938 C 51.652344 110.476562 49.828125 110.734375 48.003906 110.734375 C 40.578125 110.734375 33.667969 106.082031 31.191406 98.839844 L 17.898438 59.140625 C 17.25 57.328125 16.988281 55.519531 16.988281 53.707031 C 16.988281 46.464844 21.679688 39.742188 29.109375 37.285156 L 48.65625 30.949219 C 50.480469 30.429688 52.4375 30.042969 54.261719 30.042969 C 61.296875 30.042969 67.945312 34.3125 70.550781 41.035156 C 73.289062 34.3125 79.804688 30.042969 86.972656 30.042969 C 88.796875 30.042969 90.621094 30.300781 92.445312 30.949219 Z M 75.371094 87.070312 C 75.371094 86.296875 75.242188 85.519531 74.980469 84.613281 L 65.859375 57.585938 L 61.558594 44.914062 C 60.386719 41.683594 57.386719 39.613281 54.128906 39.613281 C 53.21875 39.613281 52.4375 39.742188 51.652344 40 L 32.105469 46.335938 C 28.71875 47.371094 26.632812 50.476562 26.632812 53.578125 C 26.632812 54.355469 26.761719 55.128906 27.023438 56.035156 L 40.578125 95.863281 C 41.617188 99.097656 44.746094 101.167969 48.003906 101.167969 C 48.785156 101.167969 49.699219 101.039062 50.480469 100.777344 L 70.160156 94.441406 C 73.289062 93.277344 75.371094 90.304688 75.371094 87.070312 Z M 84.367188 81.640625 L 75.765625 56.035156 L 79.542969 44.914062 C 80.714844 41.683594 83.84375 39.613281 87.101562 39.613281 C 87.882812 39.613281 88.796875 39.742188 89.578125 40 L 109.125 46.335938 C 112.515625 47.371094 114.601562 50.347656 114.601562 53.578125 C 114.601562 54.355469 114.46875 55.128906 114.210938 56.035156 L 100.65625 95.734375 C 99.484375 99.097656 96.484375 101.039062 93.097656 101.039062 C 92.316406 101.039062 91.402344 101.039062 90.621094 100.777344 L 81.238281 97.804688 C 83.714844 94.828125 85.015625 91.078125 85.015625 87.070312 C 85.148438 85.261719 84.886719 83.449219 84.367188 81.640625 Z M 84.367188 81.640625 "></path></g></svg>